<svg xmlns="http://www.w3.org/2000/svg" viewBox="0 0 44.58 28.54"><defs><style>.cls-1{fill:none;stroke:#000;stroke-miterlimit:10;stroke-width:2px;}</style></defs><title>elemento-1_1</title><g id="Livello_2" data-name="Livello 2"><g id="Livello_1-2" data-name="Livello 1"><path d="M9.35,14.59,5.53,13.48l1-3.58a.53.53,0,0,0-.37-.66h0a.53.53,0,0,0-.66.36l-1,3.59L.66,12.08a.52.52,0,0,0-.64.35H0a.52.52,0,0,0,.36.65l3.81,1.1-1,3.58a.55.55,0,0,0,.37.67h0a.53.53,0,0,0,.66-.36l1-3.59,3.82,1.11a.52.52,0,0,0,.64-.36h0A.52.52,0,0,0,9.35,14.59Z"/><ellipse class="cls-1" cx="30.31" cy="14.27" rx="13.27" ry="13.26" transform="matrix(0.28, -0.96, 0.96, 0.28, 8.18, 39.43)"/></g></g></svg>