<svg xmlns="http://www.w3.org/2000/svg" viewBox="0 0 92.44 73.36"><title>elemento-2</title><g id="Livello_2" data-name="Livello 2"><g id="Livello_1-2" data-name="Livello 1"><circle cx="76.23" cy="3.75" r="3.75" transform="translate(53.69 76.66) rotate(-75.64)"/><path d="M58.12,8.64A3.75,3.75,0,1,0,60.76,4,3.74,3.74,0,0,0,58.12,8.64Z"/><circle cx="47.23" cy="11.57" r="3.75" transform="matrix(0.25, -0.97, 0.97, 0.25, 24.02, 54.31)"/><path d="M29.12,16.46a3.74,3.74,0,1,0,2.64-4.59A3.74,3.74,0,0,0,29.12,16.46Z"/><path d="M14.63,20.38a3.74,3.74,0,1,0,2.64-4.6A3.74,3.74,0,0,0,14.63,20.38Z"/><circle cx="3.74" cy="23.31" r="3.75" transform="translate(-19.78 21.26) rotate(-75.87)"/><circle cx="80.49" cy="19.59" r="3.75" transform="translate(41.92 92.9) rotate(-75.92)"/><path d="M62.38,24.48A3.75,3.75,0,1,0,65,19.88,3.75,3.75,0,0,0,62.38,24.48Z"/><path d="M47.89,28.39a3.74,3.74,0,1,0,2.64-4.59A3.73,3.73,0,0,0,47.89,28.39Z"/><path d="M33.39,32.3A3.74,3.74,0,1,0,36,27.71,3.74,3.74,0,0,0,33.39,32.3Z"/><path d="M18.89,36.22a3.74,3.74,0,1,0,2.64-4.6A3.75,3.75,0,0,0,18.89,36.22Z"/><path d="M4.4,40.13A3.74,3.74,0,1,0,7,35.54,3.73,3.73,0,0,0,4.4,40.13Z"/><path d="M80.82,35.18a3.75,3.75,0,1,0,2.64-4.6A3.74,3.74,0,0,0,80.82,35.18Z"/><circle cx="69.93" cy="38.11" r="3.75" transform="translate(15.81 96.55) rotate(-75.79)"/><circle cx="55.44" cy="42.03" r="3.75" transform="matrix(0.25, -0.97, 0.97, 0.25, 0.69, 84.94)"/><path d="M37.33,46.92A3.74,3.74,0,1,0,40,42.32,3.74,3.74,0,0,0,37.33,46.92Z"/><path d="M22.83,50.83a3.74,3.74,0,1,0,2.64-4.59A3.74,3.74,0,0,0,22.83,50.83Z"/><path d="M8.33,54.74A3.74,3.74,0,1,0,11,50.15,3.76,3.76,0,0,0,8.33,54.74Z"/><path d="M85.08,51a3.75,3.75,0,1,0,2.64-4.6A3.75,3.75,0,0,0,85.08,51Z"/><path d="M70.59,54.93a3.74,3.74,0,1,0,2.64-4.59A3.73,3.73,0,0,0,70.59,54.93Z"/><path d="M56.09,58.84a3.74,3.74,0,1,0,2.64-4.59A3.74,3.74,0,0,0,56.09,58.84Z"/><path d="M41.59,62.76a3.75,3.75,0,1,0,2.64-4.6A3.75,3.75,0,0,0,41.59,62.76Z"/><circle cx="30.71" cy="65.69" r="3.75" transform="translate(-40.54 79.2) rotate(-75.68)"/><circle cx="16.22" cy="69.61" r="3.75" transform="translate(-55.24 67.9) rotate(-75.51)"/></g></g></svg>